<svg width="21" height="25" viewBox="0 0 21 25" fill="none" xmlns="http://www.w3.org/2000/svg">
<g clip-path="url(#clip0)">
<path fill-rule="evenodd" clip-rule="evenodd" d="M1.37736 2.60824H4.68343V4.74447H3.25724C2.62044 4.74447 2.09351 5.2714 2.09351 5.9082V21.8648C2.09351 22.5016 2.61841 23.0286 3.25724 23.0286H17.4581C18.0969 23.0286 18.6218 22.5037 18.6218 21.8648V5.9082C18.6218 5.26937 18.0949 4.74447 17.4581 4.74447H16.0319V2.60824H19.338C20.0968 2.60824 20.7153 3.23283 20.7153 3.9856V23.6206C20.7153 24.3754 20.0928 24.998 19.338 24.998H1.37736C0.622559 24.998 0 24.3774 0 23.6206V3.9856C0 3.22673 0.620524 2.60824 1.37736 2.60824ZM7.68839 19.5089C7.27946 19.5089 6.94783 19.1772 6.94783 18.7683C6.94783 18.3594 7.27946 18.0278 7.68839 18.0278H13.0269C13.4359 18.0278 13.7675 18.3594 13.7675 18.7683C13.7675 19.1772 13.4359 19.5089 13.0269 19.5089H7.68839ZM6.10962 15.037C5.70068 15.037 5.36906 14.7054 5.36906 14.2965C5.36906 13.8875 5.70068 13.5559 6.10962 13.5559H14.6057C15.0146 13.5559 15.3463 13.8875 15.3463 14.2965C15.3463 14.7054 15.0146 15.037 14.6057 15.037H6.10962ZM4.72005 10.5672C4.31112 10.5672 3.97949 10.2356 3.97949 9.82666C3.97949 9.41772 4.31112 9.0861 4.72005 9.0861H15.9993C16.4083 9.0861 16.7399 9.41772 16.7399 9.82666C16.7399 10.2356 16.4083 10.5672 15.9993 10.5672H4.72005ZM6.5918 1.92464H8.1543C8.28654 0.840251 9.16341 0 10.2254 0C11.2813 0 12.1521 0.828044 12.2945 1.90226L14.1235 1.92464C14.2517 1.92464 14.3534 2.02637 14.3534 2.15454V5.27344C14.3534 5.40161 14.2517 5.50334 14.1235 5.50334H6.59586C6.47176 5.50334 6.36597 5.40161 6.36597 5.27344V2.15454C6.3619 2.0284 6.46566 1.92464 6.5918 1.92464ZM9.37093 2.86865C9.51131 3.06193 9.71476 3.25317 9.92838 3.35083C10.1034 3.40373 10.2946 3.4078 10.4716 3.35897C10.7483 3.23079 11.0046 2.92358 11.1226 2.66724C11.1369 2.59399 11.145 2.51872 11.145 2.43734C11.145 1.89412 10.7279 1.45264 10.2152 1.45264C9.70052 1.45264 9.28548 1.89412 9.28548 2.43734C9.28548 2.60417 9.316 2.74862 9.37093 2.86865Z" fill="black"/>
</g>
<defs>
<clipPath id="clip0">
<rect width="20.7174" height="25" fill="white"/>
</clipPath>
</defs>
</svg>
