<svg width="25" height="25" viewBox="0 0 25 25" fill="none" xmlns="http://www.w3.org/2000/svg">
<path d="M23.7996 15.415L21.7195 14.2139C21.9295 13.0811 21.9295 11.9189 21.7195 10.7861L23.7996 9.58496C24.0389 9.44824 24.1463 9.16504 24.0682 8.90137C23.5262 7.16309 22.6033 5.59082 21.3973 4.28223C21.2117 4.08203 20.909 4.0332 20.6746 4.16992L18.5945 5.37109C17.7205 4.61914 16.7147 4.03809 15.6258 3.65723V1.25977C15.6258 0.986328 15.4354 0.74707 15.1668 0.688477C13.3748 0.288086 11.5389 0.307617 9.83477 0.688477C9.56622 0.74707 9.37579 0.986328 9.37579 1.25977V3.66211C8.2918 4.04785 7.28594 4.62891 6.40704 5.37598L4.33184 4.17481C4.09258 4.03809 3.79473 4.08203 3.60919 4.28711C2.40313 5.59082 1.48028 7.16309 0.938287 8.90625C0.855279 9.16992 0.967584 9.45313 1.20684 9.58984L3.28692 10.791C3.07696 11.9238 3.07696 13.0859 3.28692 14.2188L1.20684 15.4199C0.967584 15.5566 0.860162 15.8398 0.938287 16.1035C1.48028 17.8418 2.40313 19.4141 3.60919 20.7227C3.79473 20.9229 4.09747 20.9717 4.33184 20.835L6.41192 19.6338C7.28594 20.3857 8.2918 20.9668 9.38067 21.3477V23.75C9.38067 24.0234 9.5711 24.2627 9.83965 24.3213C11.6316 24.7217 13.4676 24.7022 15.1717 24.3213C15.4402 24.2627 15.6307 24.0234 15.6307 23.75V21.3477C16.7147 20.9619 17.7205 20.3809 18.5994 19.6338L20.6795 20.835C20.9188 20.9717 21.2166 20.9277 21.4022 20.7227C22.6082 19.4189 23.5311 17.8467 24.0731 16.1035C24.1463 15.835 24.0389 15.5518 23.7996 15.415V15.415ZM12.5008 16.4063C10.3475 16.4063 8.59454 14.6533 8.59454 12.5C8.59454 10.3467 10.3475 8.59375 12.5008 8.59375C14.6541 8.59375 16.407 10.3467 16.407 12.5C16.407 14.6533 14.6541 16.4063 12.5008 16.4063Z" fill="black"/>
</svg>
