<svg width="26" height="25" viewBox="0 0 26 25" fill="none" xmlns="http://www.w3.org/2000/svg">
<g clip-path="url(#clip0)">
<path fill-rule="evenodd" clip-rule="evenodd" d="M0.771013 13.4789H10.5362C10.9533 13.4789 11.2943 13.8844 11.2943 14.3792V23.8596C11.2943 24.3553 10.9535 24.7603 10.5362 24.7603H0.771013C0.354299 24.7603 0.0128502 24.3553 0.0128502 23.8596V14.3792C0.0128502 13.8844 0.354299 13.4789 0.771013 13.4789ZM14.5277 0H24.293C24.7104 0 25.0512 0.405088 25.0512 0.900535V10.3809C25.0512 10.8764 24.7104 11.2811 24.293 11.2811H14.5277C14.1106 11.2811 13.7701 10.8764 13.7701 10.3809V0.900535C13.7701 0.405088 14.1106 0 14.5277 0ZM0.757551 0H10.5233C10.9404 0 11.2815 0.405088 11.2815 0.900535V10.3809C11.2815 10.8764 10.9406 11.2811 10.5233 11.2811H0.757551C0.340837 11.2811 0 10.8764 0 10.3809V0.900535C0 0.405088 0.340837 0 0.757551 0ZM14.5405 13.7191H24.3059C24.7226 13.7191 25.064 14.1242 25.064 14.6199V24.1003C25.064 24.5951 24.7226 25.0002 24.3059 25.0002H14.5405C14.1234 25.0002 13.7824 24.5951 13.7824 24.1003V14.6199C13.7824 14.1242 14.1234 13.7191 14.5405 13.7191Z" fill="black"/>
</g>
<defs>
<clipPath id="clip0">
<rect width="25.064" height="25" fill="white"/>
</clipPath>
</defs>
</svg>
