<svg width="25" height="25" viewBox="0 0 25 25" fill="none" xmlns="http://www.w3.org/2000/svg">
<path d="M24.2676 13.3301L16.0645 21.5332C15.332 22.2656 14.0625 21.7529 14.0625 20.7031V16.0156H7.42188C6.77246 16.0156 6.25 15.4932 6.25 14.8438V10.1563C6.25 9.50684 6.77246 8.98438 7.42188 8.98438H14.0625V4.29688C14.0625 3.25195 15.3271 2.73438 16.0645 3.4668L24.2676 11.6699C24.7217 12.1289 24.7217 12.8711 24.2676 13.3301ZM9.375 21.2891V19.3359C9.375 19.0137 9.11133 18.75 8.78906 18.75H4.6875C3.82324 18.75 3.125 18.0518 3.125 17.1875V7.8125C3.125 6.94824 3.82324 6.25 4.6875 6.25H8.78906C9.11133 6.25 9.375 5.98633 9.375 5.66406V3.71094C9.375 3.38867 9.11133 3.125 8.78906 3.125H4.6875C2.09961 3.125 0 5.22461 0 7.8125V17.1875C0 19.7754 2.09961 21.875 4.6875 21.875H8.78906C9.11133 21.875 9.375 21.6113 9.375 21.2891Z" fill="black"/>
</svg>
